<svg xmlns="http://www.w3.org/2000/svg" width="900" height="240" viewBox="0 0 900 240" role="img" aria-labelledby="title desc">
  <title id="title">EspacioKoop Office — una oficina para hacer equipo</title>
  <desc id="desc">Versión estática de la ilustración conceptual de EspacioKoop Office: equipos, conocimiento, ocio, historia y estasis. Proyecto en definición, sin aplicación disponible.</desc>
  <defs>
    <linearGradient id="back" x2="1" y2="1">
      <stop stop-color="#1e1e2e" />
      <stop offset="1" stop-color="#11111b" />
    </linearGradient>
    <linearGradient id="name" x2="1">
      <stop stop-color="#cba6f7" />
      <stop offset=".6" stop-color="#cdd6f4" />
      <stop offset="1" stop-color="#94e2d5" />
    </linearGradient>
    <linearGradient id="glass" x2="0" y2="1">
      <stop stop-color="#45475a" />
      <stop offset="1" stop-color="#181825" />
    </linearGradient>
    <pattern id="plan" width="16" height="16" patternUnits="userSpaceOnUse">
      <path d="M16 0H0V16" fill="none" stroke="#313244" stroke-width=".5" />
    </pattern>
    <clipPath id="frame">
      <rect width="900" height="240" rx="18" />
    </clipPath>
  </defs>
  <g clip-path="url(#frame)">
    <rect width="900" height="240" rx="18" fill="url(#back)" />
    <rect x="525" y="16" width="355" height="208" rx="14" fill="url(#plan)" />
    <path d="M508 25V215" stroke="#313244" />
    <path d="M32 31h18m-9-9v18" stroke="#94e2d5" stroke-width="2" stroke-linecap="round" />
    <text x="61" y="35" font-family="sans-serif" font-size="11" letter-spacing="2.6" fill="#a6adc8">UN ESPACIO COMPARTIDO</text>
    <text x="30" y="89" font-family="sans-serif" font-size="43" font-weight="700" letter-spacing="-1.5" fill="url(#name)">EspacioKoop</text>
    <text x="31" y="139" font-family="sans-serif" font-size="49" font-weight="700" letter-spacing="5" fill="#cdd6f4">OFFICE</text>
    <text x="32" y="169" font-family="sans-serif" font-size="16" fill="#bac2de">Trabajar. Jugar. Aprender juntos.</text>
    <g font-family="sans-serif" font-size="11" fill="#cdd6f4">
      <rect x="32" y="194" width="130" height="25" rx="12" fill="#313244" />
      <circle cx="46" cy="206.5" r="3" fill="#f9e2af" />
      <text x="57" y="210">EN DEFINICIÓN</text>
      <text x="177" y="210" fill="#a6adc8">Identidad conceptual · Sin aplicación</text>
    </g>
    <rect x="540" y="27" width="326" height="187" rx="12" fill="#181825" stroke="#45475a" />
    <path d="M700 27v66m0 68v53M540 143h59m42 0h103m42 0h80" stroke="#45475a" stroke-width="2" />
    <g font-family="sans-serif" font-size="10" letter-spacing="1.2" fill="#a6adc8">
      <text x="553" y="45">EQUIPO A</text>
      <text x="747" y="45">EQUIPO B</text>
    </g>
    <g stroke-linejoin="round">
      <rect x="562" y="59" width="102" height="39" rx="7" fill="#313244" stroke="#585b70" />
      <rect x="579" y="66" width="30" height="19" rx="3" fill="#181825" stroke="#94e2d5" />
      <path d="M585 72h13m-13 5h8" stroke="#94e2d5" stroke-linecap="round" />
      <rect x="625" y="69" width="21" height="3" rx="1.5" fill="#585b70" />
      <rect x="625" y="76" width="14" height="3" rx="1.5" fill="#585b70" />
      <rect x="740" y="59" width="102" height="39" rx="7" fill="#313244" stroke="#585b70" />
      <rect x="795" y="66" width="30" height="19" rx="3" fill="#181825" stroke="#f9e2af" />
      <path d="M801 72h13m-13 5h8" stroke="#f9e2af" stroke-linecap="round" />
      <rect x="754" y="69" width="22" height="3" rx="1.5" fill="#585b70" />
      <rect x="754" y="76" width="15" height="3" rx="1.5" fill="#585b70" />
      <rect x="590" y="92" width="33" height="28" rx="11" fill="#313244" />
      <path d="M596 116v-6a10 10 0 0 1 20 0v6" fill="#94e2d5" />
      <circle cx="606" cy="103" r="7" fill="#cdd6f4" />
      <path d="M600 100q6-7 12 0" stroke="#94e2d5" stroke-width="3" fill="none" />
      <rect x="783" y="92" width="33" height="28" rx="11" fill="#313244" />
      <path d="M789 116v-6a10 10 0 0 1 20 0v6" fill="#f9e2af" />
      <circle cx="799" cy="103" r="7" fill="#cdd6f4" />
      <path d="M793 100q6-7 12 0" stroke="#f9e2af" stroke-width="3" fill="none" />
    </g>
    <path d="M631 120H772" stroke="#585b70" stroke-width="1" stroke-dasharray="3 6" />
    <path d="m767 116 5 4-5 4" fill="none" stroke="#94e2d5" />
    <g transform="translate(632 120)">
      <rect x="-7" y="-7" width="14" height="14" rx="3" transform="rotate(45)" fill="#94e2d5" stroke="#181825" stroke-width="2" />
      <path d="M-3 0h6M0-3v6" stroke="#181825" stroke-width="1.3" />
    </g>
    <circle cx="799" cy="109" r="20" fill="none" stroke="#f9e2af" opacity="0">
      </circle>
    <rect x="555" y="159" width="39" height="39" rx="17" fill="url(#glass)" stroke="#89b4fa" />
    <circle cx="574.5" cy="173" r="5" fill="#a6adc8" />
    <path d="M566 187v-4a8.5 8.5 0 0 1 17 0v4" fill="#585b70" />
    <path d="M567 173h4m7 0h4" stroke="#313244" stroke-width="1.4" />
    <path d="M603 165v8m4-8v8" stroke="#89b4fa" stroke-width="2" />
    <path d="M630 160q12-4 24 0v27q-12-4-24 0zm24 0q12-4 24 0v27q-12-4-24 0z" fill="#313244" stroke="#cba6f7" />
    <path d="M635 166h13m-13 5h10m12-5h13m-13 5h10" stroke="#cba6f7" opacity=".7" />
    <g transform="translate(721 176)">
      <path d="M-10-6h18v14q-9 8-18 0z" fill="#45475a" stroke="#fab387" />
      <path d="M8-4h3q8 6 0 11H8" fill="none" stroke="#fab387" stroke-width="2" />
      <path d="M-5-12q-3-4 0-8m6 8q-3-4 0-8" fill="none" stroke="#fab387" stroke-linecap="round" opacity=".5">
        </path>
    </g>
    <g transform="translate(810 178)" fill="none" stroke="#f9e2af" stroke-width="2" stroke-linejoin="round">
      <path d="M-10-17h20v9a10 10 0 0 1-20 0z" fill="#313244" />
      <path d="M-10-13h-6v4q0 8 9 8m17-12h6v4q0 8-9 8M0 2v8m-8 3h16" />
    </g>
    <g font-family="sans-serif" font-size="9" fill="#bac2de" text-anchor="middle">
      <text x="578" y="207">ESTASIS</text>
      <text x="654" y="207">SABER</text>
      <text x="724" y="207">OCIO</text>
      <text x="810" y="207">HISTORIA</text>
    </g>
    <rect x=".5" y=".5" width="899" height="239" rx="17.5" fill="none" stroke="#45475a" />
  </g>
</svg>
